<svg xmlns="http://www.w3.org/2000/svg" width="34.68mm" height="56mm" viewBox="0 0 98.31 158.74"><defs><style>.cls-1{fill:#a4a1a3;}.cls-2{fill:#00a5c2;}</style></defs><g id="Layer_2" data-name="Layer 2"><g id="Layer_1-2" data-name="Layer 1"><path class="cls-1" d="M17.8,154.25a1.83,1.83,0,0,0-.31.24,6.78,6.78,0,0,0-1.83,2.17,1.42,1.42,0,0,0-.2.82.47.47,0,0,0,.24.4.2.2,0,0,0,.18,0,.47.47,0,0,0,.24-.15,3.64,3.64,0,0,0,.75-1.13,18.22,18.22,0,0,0,.93-2.39m2.71-20a1.28,1.28,0,0,1,1,.44,3.39,3.39,0,0,1,.35,2.68,16.53,16.53,0,0,1-.45,2.06c-.22.75-.41,1.35-.59,1.79l-.24.67a.36.36,0,0,1-.38.26.38.38,0,0,1-.29-.12.44.44,0,0,1-.11-.3.49.49,0,0,1,0-.15,19.05,19.05,0,0,0,1.21-4.34,5.37,5.37,0,0,0,.07-1.29,1.36,1.36,0,0,0-.21-.74.58.58,0,0,0-.52-.14,3.62,3.62,0,0,0-1.42.62,16.31,16.31,0,0,0-3.95,3.86,35.3,35.3,0,0,0-3.65,5.71,17,17,0,0,0-1.79,5,3.11,3.11,0,0,0,.11,1.53.92.92,0,0,0,.75.53,4.94,4.94,0,0,0,3-.84,17.06,17.06,0,0,0,3.1-2.51c.56-.56,1.12-1.16,1.67-1.8s1-1.14,1.23-1.5l.4-.55a.41.41,0,0,1,.33-.16.4.4,0,0,1,.29.11.42.42,0,0,1,.11.29v.07q-.6,3.57-1.48,6.93s0,0,0,.05l0,0a5.81,5.81,0,0,1,.65-.2,2.11,2.11,0,0,1,1.35.07,1.75,1.75,0,0,1,.95,1,.59.59,0,0,1,0,.13.42.42,0,0,1-.2.37.42.42,0,0,1-.2.05.36.36,0,0,1-.37-.26,1,1,0,0,0-.52-.58,1.45,1.45,0,0,0-.86,0,3.93,3.93,0,0,0-1.1.42A21,21,0,0,1,17.61,157a4.23,4.23,0,0,1-1,1.4,1.22,1.22,0,0,1-.62.33,1.06,1.06,0,0,1-.73-.13,1.29,1.29,0,0,1-.66-1,2.41,2.41,0,0,1,.28-1.24A8,8,0,0,1,17,153.85a11.46,11.46,0,0,1,1.17-.84c.12-.4.19-.65.22-.76q.6-2.33,1.15-5.23a32.35,32.35,0,0,1-2.35,2.62,17,17,0,0,1-3.25,2.61,5.68,5.68,0,0,1-3.57,1,1.85,1.85,0,0,1-.84-.34,1.56,1.56,0,0,1-.53-.68,3.63,3.63,0,0,1-.18-1.93,17.43,17.43,0,0,1,1.88-5.34,35.36,35.36,0,0,1,3.71-5.87,16.73,16.73,0,0,1,4.18-4,4.5,4.5,0,0,1,1.73-.73A.62.62,0,0,1,20.51,134.29Z"/><path class="cls-1" d="M24.54,143.19a.39.39,0,0,1,0-.14.3.3,0,0,1,.09-.13.38.38,0,0,1,.13-.09.35.35,0,0,1,.17,0,.37.37,0,0,1,.28.13.37.37,0,0,1,.12.27v.25a.39.39,0,0,1,0,.14.73.73,0,0,1-.09.13.34.34,0,0,1-.14.09l-.14,0a.41.41,0,0,1-.3-.12.37.37,0,0,1-.12-.27Zm-1.48,0a.36.36,0,0,1,.11-.27.32.32,0,0,1,.27-.13.43.43,0,0,1,.41.4v.22a.4.4,0,0,1,0,.15.38.38,0,0,1-.09.13l-.12.09a.41.41,0,0,1-.16,0,.36.36,0,0,1-.28-.12.37.37,0,0,1-.11-.28Zm4.36,3.24a.36.36,0,0,1,.29-.14.36.36,0,0,1,.29.13.47.47,0,0,1,.12.28A.36.36,0,0,1,28,147a6.73,6.73,0,0,1-.78.68,11,11,0,0,1-1.13.73,3.45,3.45,0,0,1-1,.41l-.09,0a.51.51,0,0,1-.38-.16,1,1,0,0,1-.26-.77,8.6,8.6,0,0,1,.11-1.53c-.31.44-.6.83-.87,1.15-.78,1-1.4,1.37-1.86,1.22a.64.64,0,0,1-.42-.44,3.38,3.38,0,0,1,.15-1.9,7.76,7.76,0,0,1,.78-2,.42.42,0,0,1,.26-.19.43.43,0,0,1,.31.06.42.42,0,0,1,.18.25.39.39,0,0,1-.06.3,6.4,6.4,0,0,0-.64,1.62,4.68,4.68,0,0,0-.25,1.44,4,4,0,0,0,1-1A20.18,20.18,0,0,0,24.36,145c.19-.31.42-.42.67-.33a.49.49,0,0,1,.3.46,6.52,6.52,0,0,1-.08,1.18,8.73,8.73,0,0,0-.11,1.68,5.44,5.44,0,0,0,1.2-.67A8.86,8.86,0,0,0,27.42,146.43Z"/><path class="cls-1" d="M29.61,150.46a4.54,4.54,0,0,0,0-1.6A12.33,12.33,0,0,0,28,150.57a9.35,9.35,0,0,0-1.2,1.85,1.78,1.78,0,0,0-.26,1.14c0,.1.26.1.64,0a3.31,3.31,0,0,0,.95-.5,4.26,4.26,0,0,0,.68-.64,3.75,3.75,0,0,0,.44-.72,3.94,3.94,0,0,0,.27-.68c.05-.18.1-.36.14-.54m3.15-3.86a.42.42,0,0,1,0,.31.33.33,0,0,1-.22.2,11.12,11.12,0,0,0-2.22,1.22,4.82,4.82,0,0,1,.09,2.28,5.25,5.25,0,0,1-1.06,2.33,4.21,4.21,0,0,1-2,1.35,2.15,2.15,0,0,1-.73.16.88.88,0,0,1-.93-.62,2.2,2.2,0,0,1,.25-1.7A10.35,10.35,0,0,1,27.33,150a13.93,13.93,0,0,1,2-2,1.22,1.22,0,0,0-.25-.29l-.13-.13v-.18a3.25,3.25,0,0,1,.44-1.36,3.15,3.15,0,0,0,.42-1.15,1.14,1.14,0,0,0-.49.33,7.18,7.18,0,0,0-.72.78c-.27.33-.52.67-.76,1a.41.41,0,0,1-.25.17.39.39,0,0,1-.3-.06.37.37,0,0,1-.17-.25.39.39,0,0,1,.06-.3,11.75,11.75,0,0,1,1-1.35c.88-1,1.55-1.35,2-1a.81.81,0,0,1,.37.41,1,1,0,0,1,0,.59,4.9,4.9,0,0,1-.18.57c-.06.15-.15.35-.29.62a9,9,0,0,0-.35.86,1.89,1.89,0,0,1,.2.27,11.38,11.38,0,0,1,2.26-1.22.74.74,0,0,1,.21,0,.36.36,0,0,1,.18.08A.43.43,0,0,1,32.76,146.6Z"/><path class="cls-1" d="M33.53,145.89a.33.33,0,0,1,.22.14,3.52,3.52,0,0,0,.44-.27,5.91,5.91,0,0,0,.53-.43,3,3,0,0,0,.45-.52.77.77,0,0,0,.16-.27,4.2,4.2,0,0,0-.88.52,6.76,6.76,0,0,0-.92.83m3,10.19a.38.38,0,0,1-.4-.31s0-.27.13-.72.22-1.12.39-2,.31-1.77.43-2.63q.42-2.79.95-5.82c-1.62,2.92-3.11,4.23-4.45,3.92-1.05-.24-1.54-.75-1.48-1.53a3.39,3.39,0,0,1,1.3-2.12,4,4,0,0,1,2-1.18.57.57,0,0,1,.71.44,1.19,1.19,0,0,1-.2.92,3.41,3.41,0,0,1-.59.78c-.18.17-.36.33-.54.47-.68.53-1.19.71-1.53.53a.5.5,0,0,1-.24-.28,1.2,1.2,0,0,0-.13.44.75.75,0,0,0,0,.21c0,.07.08.16.23.27a1.56,1.56,0,0,0,.63.25c.54.13,1.2-.24,2-1.13a19.3,19.3,0,0,0,2.83-4.83q1.35-7.16,2.09-7.73a.48.48,0,0,1,.55-.09.72.72,0,0,1,.35.63A5.3,5.3,0,0,1,41.4,136a28.07,28.07,0,0,1-1,3.48c-.28.81-.61,1.63-1,2.46,0,.18-.07.4-.12.65s-.1.52-.16.78-.1.5-.14.72c-.15.87-.42,2.43-.83,4.67s-.7,3.92-.89,5l-.3,1.85a.34.34,0,0,1-.28.42A.28.28,0,0,1,36.55,156.08Z"/><rect class="cls-1" x="47.82" y="145.48" width="0.54" height="3.04"/><rect class="cls-1" x="47.82" y="143.71" width="0.54" height="1.3"/><rect class="cls-1" x="56.59" y="148.37" width="0.89" height="0.54"/><path class="cls-1" d="M57.08,148.59a2.87,2.87,0,0,1-1-.18,3.2,3.2,0,0,1-.9-.58l.33-.39a2.67,2.67,0,0,0,.76.51,2.14,2.14,0,0,0,.87.16,1.21,1.21,0,0,0,.77-.22.73.73,0,0,0,.29-.58v0a.68.68,0,0,0-.06-.29.47.47,0,0,0-.19-.24,1.16,1.16,0,0,0-.37-.2,4.09,4.09,0,0,0-.62-.17,6.32,6.32,0,0,1-.71-.2,1.82,1.82,0,0,1-.5-.28,1,1,0,0,1-.29-.38,1.36,1.36,0,0,1-.1-.51h0a1.14,1.14,0,0,1,.12-.52,1.3,1.3,0,0,1,.33-.41,1.77,1.77,0,0,1,.49-.27,1.79,1.79,0,0,1,.62-.1,2.52,2.52,0,0,1,1.67.58l-.31.42a2.48,2.48,0,0,0-.67-.4,2,2,0,0,0-.7-.12,1.18,1.18,0,0,0-.74.22.69.69,0,0,0-.27.55h0a.85.85,0,0,0,0,.3.76.76,0,0,0,.2.25,1.76,1.76,0,0,0,.39.2,6.26,6.26,0,0,0,.65.18,2.8,2.8,0,0,1,1.17.48,1.07,1.07,0,0,1,.38.86h0a1.09,1.09,0,0,1-.13.55,1.27,1.27,0,0,1-.33.43,1.38,1.38,0,0,1-.51.27,2.22,2.22,0,0,1-.65.09"/><polygon class="cls-1" points="65.48 143.78 66.02 143.78 66.02 148.03 68.69 148.03 68.69 148.53 65.48 148.53 65.48 143.78"/><polygon class="cls-1" points="75.38 143.78 78.85 143.78 78.85 144.27 75.92 144.27 75.92 145.91 78.25 145.91 78.25 146.4 75.92 146.4 75.92 148.03 78.85 148.03 78.85 148.53 75.38 148.53 75.38 143.78"/><path class="cls-1" d="M87.62,146.2a1.53,1.53,0,0,0,.49-.07,1.18,1.18,0,0,0,.39-.19,1,1,0,0,0,.25-.31.88.88,0,0,0,.09-.41h0a.82.82,0,0,0-.32-.69,1.45,1.45,0,0,0-.89-.25H86.16v1.93Zm-2-2.42h2a2.39,2.39,0,0,1,.79.12,1.67,1.67,0,0,1,.56.35,1.17,1.17,0,0,1,.27.42,1.27,1.27,0,0,1,.1.52h0a1.33,1.33,0,0,1-.1.54,1.2,1.2,0,0,1-.26.4,1.69,1.69,0,0,1-.41.29,2.1,2.1,0,0,1-.52.16l1.46,1.94h-.66l-1.38-1.85H86.16v1.85h-.54Z"/><path class="cls-2" d="M49.85,61c6.58.15,11.56-7.11,7.17-14a7.12,7.12,0,0,0-6-3.26h-.85a2.06,2.06,0,0,0-2,2.05,2.12,2.12,0,0,0,2.11,2.11h.72a2.94,2.94,0,0,1,2.32,1.13c2.92,3.7.31,7.84-3.24,7.81a4.56,4.56,0,0,1-4.44-4.6V2.08a2.08,2.08,0,1,0-4.16,0V52.2A8.76,8.76,0,0,0,49.85,61"/><path class="cls-2" d="M49.17,74.1c15.59.62,27.76-15.27,20.41-31.57a20.27,20.27,0,0,0-18.5-11.86h-.9a2.07,2.07,0,0,0-2.07,2.07,2.09,2.09,0,0,0,2.09,2.08h.87a16,16,0,0,1,14.35,8.72C72.21,57,62.26,70.41,49.41,70A17.73,17.73,0,0,1,32.49,52.13V19.65a2.08,2.08,0,0,0-4.16,0V52.11a21.9,21.9,0,0,0,20.84,22"/><path class="cls-2" d="M49.53,80.66C69.12,81,84.33,61.34,76,40.79A26.85,26.85,0,0,0,51.07,24.12H49.74a1.63,1.63,0,0,0-1.63,1.63v.9a1.62,1.62,0,0,0,1.63,1.62,24.12,24.12,0,1,1-23.8,23.82V26.2a2.08,2.08,0,0,0-4.16,0V52.05A28.49,28.49,0,0,0,49.53,80.66"/><path class="cls-2" d="M49.68,17.57a1.57,1.57,0,0,0-1.57,1.57v1a1.58,1.58,0,0,0,1.57,1.58h0A30.67,30.67,0,1,1,19.39,52V39.25a2.08,2.08,0,0,0-4.16,0V52A34.83,34.83,0,1,0,49.68,17.57"/><path class="cls-2" d="M50,67.57c10.9.05,19.19-11.46,13.29-22.95a13.71,13.71,0,0,0-12.21-7.41h-.88a2.07,2.07,0,0,0-2.07,2.07,2.1,2.1,0,0,0,2.1,2.09H51A9.48,9.48,0,0,1,59.23,46c5,8.55-1,17.37-9.11,17.42A11.16,11.16,0,0,1,39,52.19V13.72a2.08,2.08,0,1,0-4.15,0V52.15A15.44,15.44,0,0,0,50,67.57"/><path class="cls-2" d="M7.25,110.44a3,3,0,0,1-1.8.43H2.4v-3.32H5.45a3.12,3.12,0,0,1,1.8.42,1.4,1.4,0,0,1,.64,1.21,1.45,1.45,0,0,1-.64,1.26m-4.85-8H5.45a2.33,2.33,0,0,1,1.47.37A1.32,1.32,0,0,1,7.44,104a1.37,1.37,0,0,1-.52,1.15,2.33,2.33,0,0,1-1.47.41H2.4Zm5.31,3.83a2.73,2.73,0,0,0,2.19-2.78,2.66,2.66,0,0,0-1.16-2.29,5.27,5.27,0,0,0-3.16-.85H.39a.4.4,0,0,0-.39.4v11.77a.4.4,0,0,0,.39.39H5.74a5.62,5.62,0,0,0,3.4-.92,3,3,0,0,0,1.25-2.54,3.16,3.16,0,0,0-.71-2.1A3.31,3.31,0,0,0,7.71,106.31Z"/><path class="cls-2" d="M15.62,108.23,17.85,103,20,108.23Zm8.74,4.18-5.09-11.76a.41.41,0,0,0-.39-.25H16.94a.42.42,0,0,0-.39.24L11.4,112.4a.39.39,0,0,0,.35.55h1.64a.38.38,0,0,0,.36-.24l1-2.41H20.9l1,2.41a.38.38,0,0,0,.36.24H24A.39.39,0,0,0,24.36,112.41Z"/><path class="cls-2" d="M35,109.35a3.07,3.07,0,0,0-.57-1.94,3.72,3.72,0,0,0-1.39-1.11,14.18,14.18,0,0,0-2.09-.76,13.72,13.72,0,0,1-1.44-.49,2.68,2.68,0,0,1-.88-.57,1.18,1.18,0,0,1-.35-.87,1,1,0,0,1,.5-.9,2.45,2.45,0,0,1,1.36-.32,5.85,5.85,0,0,1,1.79.32,8.88,8.88,0,0,1,1.6.69.39.39,0,0,0,.56-.18l.64-1.37a.4.4,0,0,0-.16-.51,8.12,8.12,0,0,0-1.82-.78,8.28,8.28,0,0,0-2.41-.36,6.33,6.33,0,0,0-2.47.45,3.73,3.73,0,0,0-1.65,1.26,3.18,3.18,0,0,0-.58,1.91,3,3,0,0,0,.57,1.91,3.75,3.75,0,0,0,1.39,1.09,16.62,16.62,0,0,0,2.08.73,14.67,14.67,0,0,1,1.47.49,2.51,2.51,0,0,1,.88.56,1.18,1.18,0,0,1,.36.89,1.22,1.22,0,0,1-.58,1.05,2.78,2.78,0,0,1-1.58.38,5.56,5.56,0,0,1-2.2-.5,7.17,7.17,0,0,1-1.75-1,.4.4,0,0,0-.62.12L25,110.8a.4.4,0,0,0,.11.49,8,8,0,0,0,1.93,1.15A8.42,8.42,0,0,0,29,113v.77c0,1.08,2.34,1.09,2.34,0V113A4.83,4.83,0,0,0,34,111.85a3.24,3.24,0,0,0,1.06-2.5"/><path class="cls-2" d="M39.3,100.39H37.69a.4.4,0,0,0-.4.4v11.75a.41.41,0,0,0,.41.41h1.59a.4.4,0,0,0,.4-.41V100.79a.39.39,0,0,0-.39-.4"/><path class="cls-2" d="M37.29,98v1.54a.34.34,0,0,0,.34.34h1.73a.34.34,0,0,0,.33-.34V98c0-1-2.4-1-2.4,0"/><path class="cls-2" d="M49.8,106.3a15.43,15.43,0,0,0-2.09-.76,13.72,13.72,0,0,1-1.44-.49,2.79,2.79,0,0,1-.88-.57,1.22,1.22,0,0,1-.35-.87,1,1,0,0,1,.5-.9,2.48,2.48,0,0,1,1.37-.32,5.84,5.84,0,0,1,1.78.32,9,9,0,0,1,1.61.69.38.38,0,0,0,.55-.17l.64-1.38a.39.39,0,0,0-.15-.51,8.63,8.63,0,0,0-4.24-1.14,6.28,6.28,0,0,0-2.46.45A3.62,3.62,0,0,0,43,101.91a3.19,3.19,0,0,0-.59,1.91,2.94,2.94,0,0,0,.58,1.91,3.54,3.54,0,0,0,1.38,1.09,17.22,17.22,0,0,0,2.08.73,14.67,14.67,0,0,1,1.47.49,2.56,2.56,0,0,1,.89.56,1.21,1.21,0,0,1,.35.89,1.2,1.2,0,0,1-.58,1.05,2.74,2.74,0,0,1-1.57.38,5.57,5.57,0,0,1-2.21-.5,7.56,7.56,0,0,1-1.75-1,.39.39,0,0,0-.61.12l-.64,1.3a.41.41,0,0,0,.1.49,8.59,8.59,0,0,0,2.2,1.26,7.9,7.9,0,0,0,2.87.54,6.42,6.42,0,0,0,2.48-.44,3.91,3.91,0,0,0,1.71-1.3,3.35,3.35,0,0,0,.62-2,3,3,0,0,0-.58-1.94,3.65,3.65,0,0,0-1.39-1.11"/><path class="cls-2" d="M64.82,112.33,60.31,106a.38.38,0,0,1,0-.49l4-4.42a.39.39,0,0,0-.28-.66H62.29a.39.39,0,0,0-.29.13l-4.87,5.38a.39.39,0,0,1-.68-.26v-4.85a.4.4,0,0,0-.39-.4H54.44a.39.39,0,0,0-.39.4v11.77a.39.39,0,0,0,.39.39h1.62a.4.4,0,0,0,.39-.39v-2.67a.35.35,0,0,1,.1-.26l1.55-1.71a.39.39,0,0,1,.6,0l3.55,4.83a.39.39,0,0,0,.32.16H64.5a.39.39,0,0,0,.32-.62"/><path class="cls-2" d="M67.47,113h8.61a.4.4,0,0,0,.4-.4v-1.3a.4.4,0,0,0-.4-.4H69.87a.4.4,0,0,1-.4-.4V108.1a.39.39,0,0,1,.4-.4h5.3a.4.4,0,0,0,.4-.41V106a.4.4,0,0,0-.4-.4h-5.3a.4.4,0,0,1-.4-.4v-2.31a.4.4,0,0,1,.4-.4h6a.4.4,0,0,0,.4-.4V100.8a.39.39,0,0,0-.4-.4h-8.4a.39.39,0,0,0-.4.4v11.75a.4.4,0,0,0,.4.4"/><path class="cls-2" d="M79.32,113h7a.39.39,0,0,0,.39-.4v-1.37a.39.39,0,0,0-.39-.4H81.72a.39.39,0,0,1-.39-.4v-9.59a.4.4,0,0,0-.4-.4H79.32a.4.4,0,0,0-.4.4v11.76a.4.4,0,0,0,.4.4"/><path class="cls-2" d="M89,113h8.63a.39.39,0,0,0,.39-.4v-1.3a.39.39,0,0,0-.39-.4H91.43a.4.4,0,0,1-.4-.39v-2.37a.39.39,0,0,1,.4-.39h5.3a.4.4,0,0,0,.4-.4V106a.39.39,0,0,0-.4-.39h-5.3a.4.4,0,0,1-.4-.4v-2.31a.4.4,0,0,1,.4-.4h6a.39.39,0,0,0,.4-.39v-1.31a.39.39,0,0,0-.4-.39H89a.38.38,0,0,0-.39.39v11.76a.39.39,0,0,0,.39.4"/><path class="cls-2" d="M5.11,123.3a1,1,0,0,1-.43.57,2.24,2.24,0,0,1-1.33.32H1.51a.32.32,0,0,1-.32-.32V122a.32.32,0,0,1,.32-.32H3.35a2.56,2.56,0,0,1,1.2.24,1.17,1.17,0,0,1,.56,1.35m-3.92-4.51a.33.33,0,0,1,.32-.32H3.35a1.76,1.76,0,0,1,1.1.29,1,1,0,0,1,.39.84,1,1,0,0,1-.39.85,1.76,1.76,0,0,1-1.1.31H1.51a.33.33,0,0,1-.32-.33Zm4.07,2.57a.31.31,0,0,1,0-.52,1.93,1.93,0,0,0,.33-.31,1.73,1.73,0,0,0,.37-1.11,1.68,1.68,0,0,0-.67-1.4,3,3,0,0,0-1.84-.51H.46a.33.33,0,0,0-.32.32v7a.32.32,0,0,0,.32.32h3a3.32,3.32,0,0,0,2-.55,1.79,1.79,0,0,0,.73-1.53,1.88,1.88,0,0,0-.45-1.29A1.92,1.92,0,0,0,5.26,121.36Z"/><path class="cls-2" d="M17.11,124.21H13.37a.32.32,0,0,1-.32-.33v-1.79a.32.32,0,0,1,.32-.32h3.17a.32.32,0,0,0,.32-.32v-.31a.32.32,0,0,0-.32-.32H13.37a.32.32,0,0,1-.32-.32v-1.72a.32.32,0,0,1,.32-.32H17a.32.32,0,0,0,.32-.32v-.31a.32.32,0,0,0-.32-.32H12.32a.32.32,0,0,0-.32.32v7a.32.32,0,0,0,.32.33h4.79a.33.33,0,0,0,.33-.33v-.3a.32.32,0,0,0-.33-.32"/><path class="cls-2" d="M27.28,124.21h-2.7a.32.32,0,0,1-.32-.33v-6a.33.33,0,0,0-.32-.32h-.41a.33.33,0,0,0-.32.32v7a.33.33,0,0,0,.32.33h3.75a.32.32,0,0,0,.32-.33v-.3a.32.32,0,0,0-.32-.32"/><path class="cls-2" d="M38.13,124.21H34.38a.33.33,0,0,1-.32-.33v-1.79a.32.32,0,0,1,.32-.32h3.17a.32.32,0,0,0,.32-.32v-.31a.32.32,0,0,0-.32-.32H34.38a.32.32,0,0,1-.32-.32v-1.72a.33.33,0,0,1,.32-.32H38a.32.32,0,0,0,.32-.32v-.31a.32.32,0,0,0-.32-.32H33.34a.33.33,0,0,0-.33.32v7a.33.33,0,0,0,.33.33h4.79a.32.32,0,0,0,.32-.33v-.3a.32.32,0,0,0-.32-.32"/><path class="cls-2" d="M49.83,122.81a2.7,2.7,0,0,1-1,1,2.87,2.87,0,0,1-1.45.37H45.6a.32.32,0,0,1-.32-.32v-5.1a.32.32,0,0,1,.32-.32h1.72a2.93,2.93,0,0,1,1.47.38,2.78,2.78,0,0,1,1,1,3,3,0,0,1,0,2.94m-.48-4.8a4.1,4.1,0,0,0-2-.5H44.55a.32.32,0,0,0-.32.32v7a.32.32,0,0,0,.32.32h2.76a4.18,4.18,0,0,0,2-.49,3.72,3.72,0,0,0,1.94-3.33,3.78,3.78,0,0,0-.51-2A3.74,3.74,0,0,0,49.35,118Z"/><path class="cls-2" d="M57.38,115.53a.61.61,0,0,0-.45.18.7.7,0,0,0,0,.94.65.65,0,0,0,.9,0,.67.67,0,0,0,.18-.47.64.64,0,0,0-.18-.47.61.61,0,0,0-.45-.18"/><path class="cls-2" d="M57.58,117.51h-.4a.32.32,0,0,0-.32.32v7a.32.32,0,0,0,.32.32h.4a.32.32,0,0,0,.33-.32v-7a.33.33,0,0,0-.33-.32"/><path class="cls-2" d="M69.37,117.51H69a.33.33,0,0,0-.28.16L66.82,121a.33.33,0,0,1-.56,0l-2-3.28a.33.33,0,0,0-.28-.16h-.33a.32.32,0,0,0-.28.48L66,122.5a.47.47,0,0,1,0,.16v2.17a.32.32,0,0,0,.32.32h.4a.32.32,0,0,0,.33-.32v-2.21a.29.29,0,0,1,0-.16L69.65,118a.32.32,0,0,0-.28-.48"/><path class="cls-2" d="M80.25,124.21H76.5a.33.33,0,0,1-.32-.33v-1.79a.32.32,0,0,1,.32-.32h3.17a.32.32,0,0,0,.32-.32v-.31a.32.32,0,0,0-.32-.32H76.5a.32.32,0,0,1-.32-.32v-1.72a.33.33,0,0,1,.32-.32h3.62a.32.32,0,0,0,.32-.32v-.31a.32.32,0,0,0-.32-.32H75.46a.33.33,0,0,0-.33.32v7a.33.33,0,0,0,.33.33h4.79a.32.32,0,0,0,.32-.33v-.3a.32.32,0,0,0-.32-.32"/><path class="cls-2" d="M90.24,121.26A10.42,10.42,0,0,0,89,120.8a9.6,9.6,0,0,1-1-.35,1.54,1.54,0,0,1-.59-.4.92.92,0,0,1-.24-.66.79.79,0,0,1,.39-.7,2,2,0,0,1,1.07-.26,3.82,3.82,0,0,1,1,.17,4.18,4.18,0,0,1,.82.34.33.33,0,0,0,.44-.15l.17-.36A.32.32,0,0,0,91,118a4.33,4.33,0,0,0-.93-.39,4.4,4.4,0,0,0-1.34-.2,3.64,3.64,0,0,0-1.42.25,2,2,0,0,0-1,.72,2,2,0,0,0,0,2.2,2.13,2.13,0,0,0,.81.65,10.8,10.8,0,0,0,1.25.44c.41.13.74.24,1,.34a1.63,1.63,0,0,1,.6.42,1,1,0,0,1-.2,1.48,2.12,2.12,0,0,1-1.21.3,3.43,3.43,0,0,1-1.32-.29,4.29,4.29,0,0,1-.94-.57.31.31,0,0,0-.48.11l-.16.32a.32.32,0,0,0,.07.39,4.5,4.5,0,0,0,1.19.7,4.2,4.2,0,0,0,1.63.33,3.71,3.71,0,0,0,1.47-.27,2.21,2.21,0,0,0,1-.76,1.93,1.93,0,0,0,.35-1.14,1.74,1.74,0,0,0-.34-1.14,2.06,2.06,0,0,0-.82-.65"/><path class="cls-2" d="M97.88,117.51h-.4a.33.33,0,0,0-.33.32v7a.32.32,0,0,0,.33.32h.4a.32.32,0,0,0,.32-.32v-7a.32.32,0,0,0-.32-.32"/><path class="cls-2" d="M97.68,116.83a.64.64,0,0,0,.45-.18.67.67,0,0,0,.18-.47.62.62,0,0,0-.63-.65.63.63,0,0,0-.46.18.7.7,0,0,0,0,.94.63.63,0,0,0,.46.18"/></g></g></svg>